<svg width="114" height="41" viewBox="0 0 114 41" fill="none" xmlns="http://www.w3.org/2000/svg">
<path d="M45 11.5C44.4477 11.5 44 11.9477 44 12.5C44 13.0523 44.4477 13.5 45 13.5L45 11.5ZM53.6667 12.5C53.6667 15.4455 56.0545 17.8333 59 17.8333C61.9455 17.8333 64.3333 15.4455 64.3333 12.5C64.3333 9.55448 61.9455 7.16667 59 7.16667C56.0545 7.16667 53.6667 9.55448 53.6667 12.5ZM45 13.5L59 13.5L59 11.5L45 11.5L45 13.5Z" fill="#AF52DE"/>
<path d="M10.692 5.026V7.42H6.93V17.5H4.122V7.42H0.36V5.026H10.692ZM12.3166 17.5V3.964L14.9986 3.532V8.068C15.1786 8.008 15.4066 7.954 15.6826 7.906C15.9706 7.846 16.2466 7.816 16.5106 7.816C17.2786 7.816 17.9146 7.924 18.4186 8.14C18.9346 8.344 19.3426 8.638 19.6426 9.022C19.9546 9.406 20.1706 9.862 20.2906 10.39C20.4226 10.918 20.4886 11.506 20.4886 12.154V17.5H17.8066V12.478C17.8066 11.614 17.6926 11.002 17.4646 10.642C17.2486 10.282 16.8406 10.102 16.2406 10.102C16.0006 10.102 15.7726 10.126 15.5566 10.174C15.3526 10.21 15.1666 10.252 14.9986 10.3V17.5H12.3166ZM22.4663 12.838C22.4663 11.998 22.5923 11.266 22.8442 10.642C23.1083 10.006 23.4503 9.478 23.8703 9.058C24.2903 8.638 24.7703 8.32 25.3103 8.104C25.8623 7.888 26.4263 7.78 27.0023 7.78C28.3463 7.78 29.4083 8.194 30.1883 9.022C30.9683 9.838 31.3583 11.044 31.3583 12.64C31.3583 12.796 31.3523 12.97 31.3403 13.162C31.3283 13.342 31.3163 13.504 31.3043 13.648H25.2203C25.2803 14.2 25.5383 14.638 25.9943 14.962C26.4503 15.286 27.0623 15.448 27.8303 15.448C28.3223 15.448 28.8023 15.406 29.2703 15.322C29.7503 15.226 30.1403 15.112 30.4403 14.98L30.8003 17.158C30.6563 17.23 30.4643 17.302 30.2243 17.374C29.9843 17.446 29.7143 17.506 29.4143 17.554C29.1263 17.614 28.8143 17.662 28.4783 17.698C28.1423 17.734 27.8063 17.752 27.4703 17.752C26.6183 17.752 25.8743 17.626 25.2383 17.374C24.6143 17.122 24.0923 16.78 23.6723 16.348C23.2643 15.904 22.9583 15.382 22.7543 14.782C22.5623 14.182 22.4663 13.534 22.4663 12.838ZM28.7663 11.812C28.7543 11.584 28.7123 11.362 28.6403 11.146C28.5803 10.93 28.4783 10.738 28.3343 10.57C28.2023 10.402 28.0283 10.264 27.8123 10.156C27.6083 10.048 27.3503 9.994 27.0383 9.994C26.7383 9.994 26.4803 10.048 26.2643 10.156C26.0483 10.252 25.8683 10.384 25.7243 10.552C25.5803 10.72 25.4663 10.918 25.3823 11.146C25.3103 11.362 25.2563 11.584 25.2203 11.812H28.7663ZM4.752 25.026C4.968 25.422 5.214 25.914 5.49 26.502C5.778 27.078 6.072 27.708 6.372 28.392C6.684 29.064 6.99 29.754 7.29 30.462C7.59 31.17 7.872 31.836 8.136 32.46C8.4 31.836 8.682 31.17 8.982 30.462C9.282 29.754 9.582 29.064 9.882 28.392C10.194 27.708 10.488 27.078 10.764 26.502C11.052 25.914 11.304 25.422 11.52 25.026H14.076C14.196 25.854 14.304 26.784 14.4 27.816C14.508 28.836 14.598 29.904 14.67 31.02C14.754 32.124 14.826 33.234 14.886 34.35C14.958 35.466 15.018 36.516 15.066 37.5H12.33C12.294 36.288 12.246 34.968 12.186 33.54C12.126 32.112 12.036 30.672 11.916 29.22C11.7 29.724 11.46 30.282 11.196 30.894C10.932 31.506 10.668 32.118 10.404 32.73C10.152 33.342 9.906 33.93 9.666 34.494C9.426 35.046 9.222 35.52 9.054 35.916H7.092C6.924 35.52 6.72 35.046 6.48 34.494C6.24 33.93 5.988 33.342 5.724 32.73C5.472 32.118 5.214 31.506 4.95 30.894C4.686 30.282 4.446 29.724 4.23 29.22C4.11 30.672 4.02 32.112 3.96 33.54C3.9 34.968 3.852 36.288 3.816 37.5H1.08C1.128 36.516 1.182 35.466 1.242 34.35C1.314 33.234 1.386 32.124 1.458 31.02C1.542 29.904 1.632 28.836 1.728 27.816C1.836 26.784 1.95 25.854 2.07 25.026H4.752ZM21.0323 35.628C21.2963 35.628 21.5483 35.622 21.7883 35.61C22.0283 35.598 22.2203 35.58 22.3643 35.556V33.522C22.2563 33.498 22.0943 33.474 21.8783 33.45C21.6623 33.426 21.4643 33.414 21.2843 33.414C21.0323 33.414 20.7923 33.432 20.5643 33.468C20.3483 33.492 20.1563 33.546 19.9883 33.63C19.8203 33.714 19.6883 33.828 19.5923 33.972C19.4963 34.116 19.4483 34.296 19.4483 34.512C19.4483 34.932 19.5863 35.226 19.8623 35.394C20.1503 35.55 20.5403 35.628 21.0323 35.628ZM20.8163 27.78C21.6083 27.78 22.2683 27.87 22.7963 28.05C23.3243 28.23 23.7443 28.488 24.0563 28.824C24.3803 29.16 24.6083 29.568 24.7403 30.048C24.8723 30.528 24.9383 31.062 24.9383 31.65V37.23C24.5543 37.314 24.0203 37.41 23.3363 37.518C22.6523 37.638 21.8243 37.698 20.8523 37.698C20.2403 37.698 19.6823 37.644 19.1783 37.536C18.6863 37.428 18.2603 37.254 17.9003 37.014C17.5403 36.762 17.2643 36.438 17.0723 36.042C16.8803 35.646 16.7843 35.16 16.7843 34.584C16.7843 34.032 16.8923 33.564 17.1083 33.18C17.3363 32.796 17.6363 32.49 18.0083 32.262C18.3803 32.034 18.8063 31.872 19.2863 31.776C19.7663 31.668 20.2643 31.614 20.7803 31.614C21.1283 31.614 21.4343 31.632 21.6983 31.668C21.9743 31.692 22.1963 31.728 22.3643 31.776V31.524C22.3643 31.068 22.2263 30.702 21.9503 30.426C21.6743 30.15 21.1943 30.012 20.5103 30.012C20.0543 30.012 19.6043 30.048 19.1603 30.12C18.7163 30.18 18.3323 30.27 18.0083 30.39L17.6663 28.23C17.8223 28.182 18.0143 28.134 18.2423 28.086C18.4823 28.026 18.7403 27.978 19.0163 27.942C19.2923 27.894 19.5803 27.858 19.8803 27.834C20.1923 27.798 20.5043 27.78 20.8163 27.78ZM34.4735 29.832C34.2575 30.072 33.9635 30.396 33.5915 30.804C33.2315 31.212 32.8415 31.662 32.4215 32.154C32.0015 32.646 31.5755 33.162 31.1435 33.702C30.7235 34.242 30.3395 34.764 29.9915 35.268H34.5635V37.5H26.7335V35.916C26.9855 35.484 27.2855 35.022 27.6335 34.53C27.9935 34.026 28.3655 33.522 28.7495 33.018C29.1455 32.514 29.5355 32.028 29.9195 31.56C30.3035 31.08 30.6575 30.648 30.9815 30.264H26.9495V28.032H34.4735V29.832ZM43.4735 29.832C43.2575 30.072 42.9635 30.396 42.5915 30.804C42.2315 31.212 41.8415 31.662 41.4215 32.154C41.0015 32.646 40.5755 33.162 40.1435 33.702C39.7235 34.242 39.3395 34.764 38.9915 35.268H43.5635V37.5H35.7335V35.916C35.9855 35.484 36.2855 35.022 36.6335 34.53C36.9935 34.026 37.3655 33.522 37.7495 33.018C38.1455 32.514 38.5355 32.028 38.9195 31.56C39.3035 31.08 39.6575 30.648 39.9815 30.264H35.9495V28.032H43.4735V29.832ZM48.0455 37.5H45.3635V28.032H48.0455V37.5ZM48.2975 25.296C48.2975 25.788 48.1355 26.178 47.8115 26.466C47.4995 26.742 47.1275 26.88 46.6955 26.88C46.2635 26.88 45.8855 26.742 45.5615 26.466C45.2495 26.178 45.0935 25.788 45.0935 25.296C45.0935 24.804 45.2495 24.42 45.5615 24.144C45.8855 23.856 46.2635 23.712 46.6955 23.712C47.1275 23.712 47.4995 23.856 47.8115 24.144C48.1355 24.42 48.2975 24.804 48.2975 25.296ZM50.5666 28.356C51.0226 28.224 51.6106 28.104 52.3306 27.996C53.0506 27.876 53.8066 27.816 54.5986 27.816C55.4026 27.816 56.0686 27.924 56.5966 28.14C57.1366 28.344 57.5626 28.638 57.8746 29.022C58.1866 29.406 58.4086 29.862 58.5406 30.39C58.6726 30.918 58.7386 31.506 58.7386 32.154V37.5H56.0566V32.478C56.0566 31.614 55.9426 31.002 55.7146 30.642C55.4866 30.282 55.0606 30.102 54.4366 30.102C54.2446 30.102 54.0406 30.114 53.8246 30.138C53.6086 30.15 53.4166 30.168 53.2486 30.192V37.5H50.5666V28.356ZM63.8483 37.5H61.1663V28.032H63.8483V37.5ZM64.1003 25.296C64.1003 25.788 63.9383 26.178 63.6143 26.466C63.3023 26.742 62.9303 26.88 62.4983 26.88C62.0663 26.88 61.6883 26.742 61.3643 26.466C61.0523 26.178 60.8963 25.788 60.8963 25.296C60.8963 24.804 61.0523 24.42 61.3643 24.144C61.6883 23.856 62.0663 23.712 62.4983 23.712C62.9303 23.712 63.3023 23.856 63.6143 24.144C63.9383 24.42 64.1003 24.804 64.1003 25.296ZM74.2756 35.358C74.6716 35.358 74.9956 35.328 75.2476 35.268C75.5116 35.196 75.7216 35.106 75.8776 34.998C76.0336 34.878 76.1416 34.74 76.2016 34.584C76.2616 34.428 76.2916 34.254 76.2916 34.062C76.2916 33.654 76.0996 33.318 75.7156 33.054C75.3316 32.778 74.6716 32.484 73.7356 32.172C73.3276 32.028 72.9196 31.866 72.5116 31.686C72.1036 31.494 71.7376 31.26 71.4136 30.984C71.0896 30.696 70.8256 30.354 70.6216 29.958C70.4176 29.55 70.3156 29.058 70.3156 28.482C70.3156 27.906 70.4236 27.39 70.6396 26.934C70.8556 26.466 71.1616 26.07 71.5576 25.746C71.9536 25.422 72.4336 25.176 72.9976 25.008C73.5616 24.828 74.1976 24.738 74.9056 24.738C75.7456 24.738 76.4716 24.828 77.0836 25.008C77.6956 25.188 78.1996 25.386 78.5956 25.602L77.7856 27.816C77.4376 27.636 77.0476 27.48 76.6156 27.348C76.1956 27.204 75.6856 27.132 75.0856 27.132C74.4136 27.132 73.9276 27.228 73.6276 27.42C73.3396 27.6 73.1956 27.882 73.1956 28.266C73.1956 28.494 73.2496 28.686 73.3576 28.842C73.4656 28.998 73.6156 29.142 73.8076 29.274C74.0116 29.394 74.2396 29.508 74.4916 29.616C74.7556 29.712 75.0436 29.814 75.3556 29.922C76.0036 30.162 76.5676 30.402 77.0476 30.642C77.5276 30.87 77.9236 31.14 78.2356 31.452C78.5596 31.764 78.7996 32.13 78.9556 32.55C79.1116 32.97 79.1896 33.48 79.1896 34.08C79.1896 35.244 78.7816 36.15 77.9656 36.798C77.1496 37.434 75.9196 37.752 74.2756 37.752C73.7236 37.752 73.2256 37.716 72.7816 37.644C72.3376 37.584 71.9416 37.506 71.5936 37.41C71.2576 37.314 70.9636 37.212 70.7116 37.104C70.4716 36.996 70.2676 36.894 70.0996 36.798L70.8916 34.566C71.2636 34.77 71.7196 34.956 72.2596 35.124C72.8116 35.28 73.4836 35.358 74.2756 35.358ZM89.2522 37.176C88.7962 37.308 88.2082 37.428 87.4882 37.536C86.7682 37.656 86.0122 37.716 85.2202 37.716C84.4162 37.716 83.7442 37.608 83.2042 37.392C82.6762 37.176 82.2562 36.876 81.9442 36.492C81.6322 36.096 81.4102 35.628 81.2782 35.088C81.1462 34.548 81.0802 33.954 81.0802 33.306V28.032H83.7622V32.982C83.7622 33.846 83.8762 34.47 84.1042 34.854C84.3322 35.238 84.7582 35.43 85.3822 35.43C85.5742 35.43 85.7782 35.424 85.9942 35.412C86.2102 35.388 86.4022 35.364 86.5702 35.34V28.032H89.2522V37.176ZM94.4518 37.5H91.7698V28.032H94.4518V37.5ZM94.7038 25.296C94.7038 25.788 94.5418 26.178 94.2178 26.466C93.9058 26.742 93.5338 26.88 93.1018 26.88C92.6698 26.88 92.2918 26.742 91.9678 26.466C91.6558 26.178 91.4998 25.788 91.4998 25.296C91.4998 24.804 91.6558 24.42 91.9678 24.144C92.2918 23.856 92.6698 23.712 93.1018 23.712C93.5338 23.712 93.9058 23.856 94.2178 24.144C94.5418 24.42 94.7038 24.804 94.7038 25.296ZM96.8829 25.674L99.5649 25.242V28.032H102.787V30.264H99.5649V33.594C99.5649 34.158 99.6609 34.608 99.8529 34.944C100.057 35.28 100.459 35.448 101.059 35.448C101.347 35.448 101.641 35.424 101.941 35.376C102.253 35.316 102.535 35.238 102.787 35.142L103.165 37.23C102.841 37.362 102.481 37.476 102.085 37.572C101.689 37.668 101.203 37.716 100.627 37.716C99.8949 37.716 99.2889 37.62 98.8089 37.428C98.3289 37.224 97.9449 36.948 97.6569 36.6C97.3689 36.24 97.1649 35.808 97.0449 35.304C96.9369 34.8 96.8829 34.242 96.8829 33.63V25.674ZM104.169 32.838C104.169 31.998 104.295 31.266 104.547 30.642C104.811 30.006 105.153 29.478 105.573 29.058C105.993 28.638 106.473 28.32 107.013 28.104C107.565 27.888 108.129 27.78 108.705 27.78C110.049 27.78 111.111 28.194 111.891 29.022C112.671 29.838 113.061 31.044 113.061 32.64C113.061 32.796 113.055 32.97 113.043 33.162C113.031 33.342 113.019 33.504 113.007 33.648H106.923C106.983 34.2 107.241 34.638 107.697 34.962C108.153 35.286 108.765 35.448 109.533 35.448C110.025 35.448 110.505 35.406 110.973 35.322C111.453 35.226 111.843 35.112 112.143 34.98L112.503 37.158C112.359 37.23 112.167 37.302 111.927 37.374C111.687 37.446 111.417 37.506 111.117 37.554C110.829 37.614 110.517 37.662 110.181 37.698C109.845 37.734 109.509 37.752 109.173 37.752C108.321 37.752 107.577 37.626 106.941 37.374C106.317 37.122 105.795 36.78 105.375 36.348C104.967 35.904 104.661 35.382 104.457 34.782C104.265 34.182 104.169 33.534 104.169 32.838ZM110.469 31.812C110.457 31.584 110.415 31.362 110.343 31.146C110.283 30.93 110.181 30.738 110.037 30.57C109.905 30.402 109.731 30.264 109.515 30.156C109.311 30.048 109.053 29.994 108.741 29.994C108.441 29.994 108.183 30.048 107.967 30.156C107.751 30.252 107.571 30.384 107.427 30.552C107.283 30.72 107.169 30.918 107.085 31.146C107.013 31.362 106.959 31.584 106.923 31.812H110.469Z" fill="white"/>
</svg>
