<svg width="74" height="74" viewBox="0 0 74 74" fill="none" xmlns="http://www.w3.org/2000/svg">
<circle cx="37" cy="37" r="37" fill="#FF7500" fill-opacity="0.04"/>
<path d="M27.436 42.4659H48.7871M27.0917 38.4482H49.1316M49.8657 29.884L48.2581 48.6398C48.0803 50.7142 47.9913 51.7512 47.5303 52.5361C47.1243 53.2272 46.5216 53.7811 45.7983 54.1266C44.977 54.5189 43.936 54.519 41.854 54.519H34.3708C32.2888 54.519 31.2471 54.5189 30.4257 54.1266C29.7024 53.7811 29.0994 53.2272 28.6934 52.536C28.2324 51.7512 28.1435 50.7142 27.9657 48.6398L26.358 29.884C26.2543 28.6733 26.2024 28.0678 26.4062 27.6007C26.5853 27.1903 26.8963 26.8516 27.2899 26.6381C27.7379 26.3952 28.3455 26.3952 29.5606 26.3952H46.6638C47.8789 26.3952 48.4868 26.3952 48.9348 26.6381C49.3284 26.8516 49.6387 27.1903 49.8177 27.6007C50.0215 28.0678 49.9695 28.6733 49.8657 29.884ZM48.6528 26.3952H27.5714C25.7602 26.3952 24.8546 26.3952 24.3286 26.0161C23.8648 25.6819 23.5656 25.1659 23.5055 24.5974C23.4374 23.9526 23.8871 23.1664 24.7857 21.5939C25.457 20.4191 25.7926 19.8317 26.2637 19.4038C26.6848 19.0212 27.1823 18.7324 27.7234 18.5566C28.3287 18.3599 29.005 18.3599 30.3581 18.3599H45.8668C47.2198 18.3599 47.8963 18.3599 48.5016 18.5566C49.0427 18.7324 49.5398 19.0212 49.9609 19.4038C50.432 19.8317 50.7676 20.4191 51.4389 21.5939C52.3375 23.1664 52.787 23.9526 52.7189 24.5974C52.6588 25.1659 52.36 25.6819 51.8962 26.0161C51.3702 26.3952 50.464 26.3952 48.6528 26.3952Z" stroke="#AF52DE" stroke-width="3" stroke-linecap="round" stroke-linejoin="round"/>
</svg>
