<svg width="74" height="74" viewBox="0 0 74 74" fill="none" xmlns="http://www.w3.org/2000/svg">
<circle cx="37" cy="37" r="37" fill="#FF7500" fill-opacity="0.04"/>
<path fill-rule="evenodd" clip-rule="evenodd" d="M35.8302 18.7902C36.5925 18.5559 37.4075 18.5559 38.1698 18.7902L44.1412 20.6255C47.2565 21.583 50.2151 22.9908 52.9232 24.8041C55.0295 26.2144 54.0311 29.4999 51.4962 29.4999H22.5038C19.9689 29.4999 18.9705 26.2144 21.0768 24.8041C23.7849 22.9908 26.7435 21.583 29.8588 20.6255L35.8302 18.7902ZM37.2884 21.6578C37.1005 21.6001 36.8995 21.6001 36.7116 21.6578L30.7401 23.4932C28.3785 24.219 26.1158 25.2291 24.0014 26.4999H49.9986C47.8842 25.2291 45.6215 24.219 43.2599 23.4932L37.2884 21.6578Z" fill="#AF52DE"/>
<path d="M21.5 55.9999C21.5 55.1715 22.1716 54.4999 23 54.4999H51C51.8284 54.4999 52.5 55.1715 52.5 55.9999C52.5 56.8284 51.8284 57.4999 51 57.4999H23C22.1716 57.4999 21.5 56.8284 21.5 55.9999Z" fill="#AF52DE"/>
<path d="M25.5 47.9999C25.5 48.8284 26.1716 49.4999 27 49.4999C27.8284 49.4999 28.5 48.8284 28.5 47.9999L28.5 35.9999C28.5 35.1715 27.8284 34.4999 27 34.4999C26.1716 34.4999 25.5 35.1715 25.5 35.9999L25.5 47.9999Z" fill="#AF52DE"/>
<path d="M37 49.4999C36.1716 49.4999 35.5 48.8284 35.5 47.9999L35.5 35.9999C35.5 35.1715 36.1716 34.4999 37 34.4999C37.8284 34.4999 38.5 35.1715 38.5 35.9999V47.9999C38.5 48.8284 37.8284 49.4999 37 49.4999Z" fill="#AF52DE"/>
<path d="M45.5 47.9999C45.5 48.8284 46.1716 49.4999 47 49.4999C47.8284 49.4999 48.5 48.8284 48.5 47.9999V35.9999C48.5 35.1715 47.8284 34.4999 47 34.4999C46.1716 34.4999 45.5 35.1715 45.5 35.9999V47.9999Z" fill="#AF52DE"/>
</svg>
