<svg width="56" height="56" viewBox="0 0 56 56" fill="none" xmlns="http://www.w3.org/2000/svg">
<path opacity="0.2" d="M28 5.25C23.3587 5.25 18.9075 7.09374 15.6256 10.3756C12.3437 13.6575 10.5 18.1087 10.5 22.75C10.5 38.5 28 50.75 28 50.75C28 50.75 45.5 38.5 45.5 22.75C45.5 18.1087 43.6563 13.6575 40.3744 10.3756C37.0925 7.09374 32.6413 5.25 28 5.25ZM28 29.75C26.6155 29.75 25.2622 29.3395 24.111 28.5703C22.9599 27.8011 22.0627 26.7079 21.5328 25.4288C21.003 24.1497 20.8644 22.7422 21.1345 21.3844C21.4046 20.0265 22.0713 18.7792 23.0503 17.8003C24.0292 16.8213 25.2765 16.1546 26.6344 15.8845C27.9922 15.6144 29.3997 15.753 30.6788 16.2828C31.9579 16.8127 33.0511 17.7099 33.8203 18.861C34.5895 20.0122 35 21.3655 35 22.75C35 24.6065 34.2625 26.387 32.9497 27.6997C31.637 29.0125 29.8565 29.75 28 29.75Z" fill="#AF52DE"/>
<path d="M28 14C26.2694 14 24.5777 14.5132 23.1388 15.4746C21.6998 16.4361 20.5783 17.8027 19.9161 19.4015C19.2538 21.0004 19.0805 22.7597 19.4181 24.457C19.7557 26.1544 20.5891 27.7135 21.8128 28.9372C23.0365 30.1609 24.5956 30.9943 26.293 31.3319C27.9903 31.6695 29.7496 31.4962 31.3485 30.8339C32.9473 30.1717 34.3139 29.0502 35.2754 27.6112C36.2368 26.1723 36.75 24.4806 36.75 22.75C36.75 20.4294 35.8281 18.2038 34.1872 16.5628C32.5462 14.9219 30.3206 14 28 14ZM28 28C26.9616 28 25.9466 27.6921 25.0833 27.1152C24.2199 26.5383 23.547 25.7184 23.1496 24.7591C22.7523 23.7998 22.6483 22.7442 22.8509 21.7258C23.0534 20.7074 23.5535 19.7719 24.2877 19.0377C25.0219 18.3035 25.9574 17.8035 26.9758 17.6009C27.9942 17.3983 29.0498 17.5023 30.0091 17.8996C30.9684 18.297 31.7883 18.9699 32.3652 19.8333C32.9421 20.6966 33.25 21.7116 33.25 22.75C33.25 24.1424 32.6969 25.4777 31.7123 26.4623C30.7277 27.4469 29.3924 28 28 28ZM28 3.5C22.8964 3.50579 18.0034 5.53577 14.3946 9.14459C10.7858 12.7534 8.75579 17.6464 8.75 22.75C8.75 29.6188 11.9241 36.8988 17.9375 43.8047C20.6395 46.9253 23.6807 49.7353 27.0047 52.1828C27.2989 52.3889 27.6495 52.4995 28.0087 52.4995C28.368 52.4995 28.7186 52.3889 29.0128 52.1828C32.3307 49.7343 35.3659 46.9243 38.0625 43.8047C44.0672 36.8988 47.25 29.6188 47.25 22.75C47.2442 17.6464 45.2142 12.7534 41.6054 9.14459C37.9966 5.53577 33.1036 3.50579 28 3.5ZM28 48.5625C24.3841 45.7188 12.25 35.2734 12.25 22.75C12.25 18.5728 13.9094 14.5668 16.8631 11.6131C19.8168 8.65937 23.8228 7 28 7C32.1772 7 36.1832 8.65937 39.1369 11.6131C42.0906 14.5668 43.75 18.5728 43.75 22.75C43.75 35.2691 31.6159 45.7188 28 48.5625Z" fill="#AF52DE"/>
</svg>
