<svg width="127" height="22" viewBox="0 0 127 22" fill="none" xmlns="http://www.w3.org/2000/svg">
<path d="M16.2543 12.9902C16.0194 13.2179 15.9114 13.5471 15.965 13.8701L16.7714 18.3331C16.8394 18.7114 16.6798 19.0942 16.3632 19.3128C16.0529 19.5396 15.6402 19.5668 15.3018 19.3854L11.2842 17.2899C11.1445 17.2156 10.9894 17.1757 10.8306 17.1711H10.5848C10.4995 17.1838 10.4161 17.211 10.3399 17.2528L6.3213 19.3582C6.12264 19.458 5.89767 19.4934 5.67724 19.458C5.14022 19.3564 4.78191 18.8448 4.8699 18.305L5.67724 13.842C5.73076 13.5163 5.62281 13.1852 5.38787 12.9539L2.11224 9.77895C1.83828 9.51316 1.74304 9.11402 1.86822 8.75389C1.98977 8.39467 2.30001 8.13251 2.67465 8.07355L7.18307 7.41951C7.52596 7.38413 7.82713 7.1755 7.98134 6.86707L9.96795 2.79408C10.0151 2.70336 10.0759 2.61991 10.1494 2.54915L10.231 2.48565C10.2736 2.43848 10.3226 2.39948 10.3771 2.36773L10.4759 2.33144L10.6301 2.26794H11.012C11.3531 2.30332 11.6534 2.50743 11.8103 2.81222L13.8232 6.86707C13.9684 7.1637 14.2505 7.36962 14.5761 7.41951L19.0846 8.07355C19.4656 8.12798 19.784 8.39104 19.91 8.75389C20.0289 9.11765 19.9264 9.51679 19.647 9.77895L16.2543 12.9902Z" fill="#AF52DE"/>
<path d="M43.4681 12.9902C43.2332 13.2179 43.1252 13.5471 43.1788 13.8701L43.9852 18.3331C44.0532 18.7114 43.8936 19.0942 43.577 19.3128C43.2668 19.5396 42.854 19.5668 42.5157 19.3854L38.498 17.2899C38.3583 17.2156 38.2032 17.1757 38.0444 17.1711H37.7986C37.7133 17.1838 37.6299 17.211 37.5537 17.2528L33.5351 19.3582C33.3364 19.458 33.1115 19.4934 32.891 19.458C32.354 19.3564 31.9957 18.8448 32.0837 18.305L32.891 13.842C32.9446 13.5163 32.8366 13.1852 32.6017 12.9539L29.326 9.77895C29.0521 9.51316 28.9568 9.11402 29.082 8.75389C29.2036 8.39467 29.5138 8.13251 29.8885 8.07355L34.3969 7.41951C34.7398 7.38413 35.0409 7.1755 35.1951 6.86707L37.1818 2.79408C37.2289 2.70336 37.2897 2.61991 37.3632 2.54915L37.4448 2.48565C37.4875 2.43848 37.5364 2.39948 37.5909 2.36773L37.6897 2.33144L37.844 2.26794H38.2259C38.5669 2.30332 38.8672 2.50743 39.0241 2.81222L41.037 6.86707C41.1822 7.1637 41.4643 7.36962 41.79 7.41951L46.2984 8.07355C46.6794 8.12798 46.9978 8.39104 47.1239 8.75389C47.2427 9.11765 47.1402 9.51679 46.8608 9.77895L43.4681 12.9902Z" fill="#AF52DE"/>
<path d="M70.6819 12.9902C70.4469 13.2179 70.339 13.5471 70.3925 13.8701L71.1989 18.3331C71.267 18.7114 71.1073 19.0942 70.7907 19.3128C70.4805 19.5396 70.0678 19.5668 69.7294 19.3854L65.7117 17.2899C65.572 17.2156 65.4169 17.1757 65.2582 17.1711H65.0123C64.9271 17.1838 64.8436 17.211 64.7674 17.2528L60.7489 19.3582C60.5502 19.458 60.3252 19.4934 60.1048 19.458C59.5678 19.3564 59.2095 18.8448 59.2974 18.305L60.1048 13.842C60.1583 13.5163 60.0504 13.1852 59.8154 12.9539L56.5398 9.77895C56.2658 9.51316 56.1706 9.11402 56.2958 8.75389C56.4173 8.39467 56.7276 8.13251 57.1022 8.07355L61.6106 7.41951C61.9535 7.38413 62.2547 7.1755 62.4089 6.86707L64.3955 2.79408C64.4427 2.70336 64.5034 2.61991 64.5769 2.54915L64.6586 2.48565C64.7012 2.43848 64.7502 2.39948 64.8046 2.36773L64.9035 2.33144L65.0577 2.26794H65.4396C65.7807 2.30332 66.0809 2.50743 66.2379 2.81222L68.2508 6.86707C68.3959 7.1637 68.678 7.36962 69.0037 7.41951L73.5121 8.07355C73.8931 8.12798 74.2115 8.39104 74.3376 8.75389C74.4564 9.11765 74.3539 9.51679 74.0745 9.77895L70.6819 12.9902Z" fill="#AF52DE"/>
<path d="M97.8957 12.9902C97.6607 13.2179 97.5528 13.5471 97.6063 13.8701L98.4127 18.3331C98.4808 18.7114 98.3211 19.0942 98.0045 19.3128C97.6943 19.5396 97.2816 19.5668 96.9432 19.3854L92.9255 17.2899C92.7858 17.2156 92.6307 17.1757 92.472 17.1711H92.2261C92.1409 17.1838 92.0574 17.211 91.9812 17.2528L87.9627 19.3582C87.764 19.458 87.539 19.4934 87.3186 19.458C86.7816 19.3564 86.4233 18.8448 86.5113 18.305L87.3186 13.842C87.3721 13.5163 87.2642 13.1852 87.0292 12.9539L83.7536 9.77895C83.4796 9.51316 83.3844 9.11402 83.5096 8.75389C83.6311 8.39467 83.9414 8.13251 84.316 8.07355L88.8244 7.41951C89.1673 7.38413 89.4685 7.1755 89.6227 6.86707L91.6093 2.79408C91.6565 2.70336 91.7173 2.61991 91.7907 2.54915L91.8724 2.48565C91.915 2.43848 91.964 2.39948 92.0184 2.36773L92.1173 2.33144L92.2715 2.26794H92.6534C92.9945 2.30332 93.2947 2.50743 93.4517 2.81222L95.4646 6.86707C95.6097 7.1637 95.8918 7.36962 96.2175 7.41951L100.726 8.07355C101.107 8.12798 101.425 8.39104 101.551 8.75389C101.67 9.11765 101.568 9.51679 101.288 9.77895L97.8957 12.9902Z" fill="#AF52DE"/>
<path d="M123.296 13.4437C123.061 13.6714 122.953 14.0006 123.006 14.3236L123.813 18.7866C123.881 19.1649 123.721 19.5477 123.404 19.7663C123.094 19.9931 122.681 20.0203 122.343 19.8389L118.325 17.7434C118.186 17.6691 118.031 17.6291 117.872 17.6246H117.626C117.541 17.6373 117.457 17.6645 117.381 17.7062L113.362 19.8117C113.164 19.9115 112.939 19.9469 112.718 19.9115C112.181 19.8099 111.823 19.2983 111.911 18.7585L112.718 14.2955C112.772 13.9698 112.664 13.6387 112.429 13.4074L109.153 10.2324C108.879 9.96665 108.784 9.56752 108.909 9.20739C109.031 8.84816 109.341 8.586 109.716 8.52704L114.224 7.873C114.567 7.83763 114.868 7.62899 115.023 7.32056L117.009 3.24757C117.056 3.15686 117.117 3.0734 117.191 3.00264L117.272 2.93915C117.315 2.89198 117.364 2.85297 117.418 2.82122L117.517 2.78493L117.671 2.72144H118.053C118.394 2.75681 118.695 2.96092 118.852 3.26571L120.864 7.32056C121.01 7.61719 121.292 7.82311 121.617 7.873L126.126 8.52704C126.507 8.58147 126.825 8.84454 126.951 9.20739C127.07 9.57114 126.968 9.97028 126.688 10.2324L123.296 13.4437Z" fill="#AF52DE"/>
</svg>
