<svg width="74" height="74" viewBox="0 0 74 74" fill="none" xmlns="http://www.w3.org/2000/svg">
<circle cx="37" cy="37" r="37" fill="#FF7500" fill-opacity="0.04"/>
<path d="M30.6865 42.1801C31.6182 41.181 32.7447 40.3834 33.9966 39.8365C35.2484 39.2895 36.5986 39.0048 37.9647 39C39.3308 38.9953 40.6835 39.2705 41.9392 39.8087C43.1948 40.3468 44.3271 41.1365 45.2658 42.1291M26.2988 36.0881C27.7895 34.4895 29.5919 33.2134 31.5949 32.3383C33.5979 31.4632 35.7587 31.0078 37.9445 31.0001C40.1302 30.9925 42.2942 31.4328 44.3033 32.2939C46.3123 33.1549 48.124 34.4185 49.6258 36.0066M20.4473 30.6321C22.6833 28.2342 25.3869 26.32 28.3914 25.0073C31.3958 23.6947 34.6376 23.0116 37.9162 23.0001C41.1948 22.9887 44.4409 23.6492 47.4544 24.9408C50.4679 26.2324 53.1846 28.1278 55.4373 30.51M38 51C36.8954 51 36 50.1046 36 49C36 47.8955 36.8954 47 38 47C39.1046 47 40 47.8955 40 49C40 50.1046 39.1046 51 38 51Z" stroke="#AF52DE" stroke-width="3" stroke-linecap="round" stroke-linejoin="round"/>
</svg>
